<svg viewBox="0 0 1080 1080" fill="none" xmlns="http://www.w3.org/2000/svg">      <defs>  <filter id="filter" x="-20%" y="-20%" width="140%" height="140%" filterUnits="objectBoundingBox" primitiveUnits="userSpaceOnUse" color-interpolation-filters="linearRGB">    <feMorphology operator="dilate" radius="20 20" in="SourceAlpha" result="morphology"/>    <feFlood flood-color="#ffffff" flood-opacity="1" result="flood"/>    <feComposite in="flood" in2="morphology" operator="in" result="composite"/>    <feMerge result="merge">          <feMergeNode in="composite" result="mergeNode"/>      <feMergeNode in="SourceGraphic" result="mergeNode1"/>      </feMerge>  </filter></defs>      <g id="notion-avatar" filter="url(#filter)">        <g id="notion-avatar-face" fill="#ffffff">      <!--?xml version="1.0" encoding="UTF-8"?-->    <title>Face/ 6</title>    <g id="Face/-6" stroke="none" stroke-width="1" fill-rule="evenodd" stroke-linecap="round" stroke-linejoin="round">        <path d="M532,379 C664.54834,379 772,486.45166 772,619 C772,751.54834 764.54834,899 532,899 C402.610491,899 332.317998,816.086314 305.249034,718.717925 C264.225797,715.291578 232,680.909158 232,639 C232,599.134956 261.158843,566.080325 299.312086,560.00055 C325.599297,455.979213 419.809919,379 532,379 Z M295.858895,624.545187 L304.141105,655.454813" id="Path" stroke="#000000" stroke-width="24"/>    </g>    </g><g id="notion-avatar-nose">      <!--?xml version="1.0" encoding="UTF-8"?-->    <title>Nose/ 5</title>    <g id="Nose/-5" stroke="none" stroke-width="1" fill="none" fill-rule="evenodd" stroke-linecap="round" stroke-linejoin="round">        <path d="M673,568 C662.55102,590.836147 657.326531,613.414126 657.326531,635.733939 C657.326531,669.213657 673,686.992054 670.061224,702.552554 C668.102041,712.92622 653.081633,714.756867 625,708.044495" id="Path" stroke="#000000" stroke-width="16"/>    </g>    </g><g id="notion-avatar-mouth">      <g id="Mouth/ 14"><g id="Group"><path id="Path" fill-rule="evenodd" clip-rule="evenodd" d="M555.87 801.555C536.147 789.209 521.396 768.019 521.396 768.019C521.396 768.019 569 757.637 609 757.319C649 757 696.604 768.019 696.604 768.019C696.604 768.019 681.852 789.209 662.129 801.555C653.101 807.207 625 810 609.443 810C593.886 810 564.806 807.15 555.87 801.555Z" stroke="black" stroke-width="16" stroke-linecap="round" stroke-linejoin="round"/><path id="Path_2" d="M569.322 801C569.322 801 589.161 793 609 793C628.838 793 648.677 801 648.677 801" stroke="black" stroke-width="8" stroke-linecap="round" stroke-linejoin="round"/></g></g>    </g><g id="notion-avatar-eyes">      <!--?xml version="1.0" encoding="UTF-8"?-->    <title>Eyes/ 4</title>    <g id="Eyes/-4" stroke="none" stroke-width="1" fill="none" fill-rule="evenodd">        <path d="M570,516 C583.254834,516 594,526.745166 594,540 C594,553.254834 583.254834,564 570,564 C556.745166,564 546,553.254834 546,540 C546,526.745166 556.745166,516 570,516 Z M708,516 C721.254834,516 732,526.745166 732,540 C732,553.254834 721.254834,564 708,564 C694.745166,564 684,553.254834 684,540 C684,526.745166 694.745166,516 708,516 Z M562,526 C558.686292,526 556,528.686292 556,532 C556,535.313708 558.686292,538 562,538 C565.313708,538 568,535.313708 568,532 C568,528.686292 565.313708,526 562,526 Z M700,526 C696.686292,526 694,528.686292 694,532 C694,535.313708 696.686292,538 700,538 C703.313708,538 706,535.313708 706,532 C706,528.686292 703.313708,526 700,526 Z" id="Combined-Shape" fill="#000000"/>    </g>    </g><g id="notion-avatar-eyebrows">      <!--?xml version="1.0" encoding="UTF-8"?-->    <title>Eyebrows/ 7</title>    <g id="Eyebrows/-7" stroke="none" stroke-width="1" fill="none" fill-rule="evenodd" stroke-linecap="round" stroke-linejoin="round">        <g id="Group" transform="translate(528.000000, 485.000000)" stroke="#000000" stroke-width="16">            <path d="M2,31 C13.6420073,23.1142473 23.8820073,17.5142473 32.72,14.2 C41.5579927,10.8857527 52.651326,8.48575274 66,7" id="Path" transform="translate(34.000000, 19.000000) rotate(12.000000) translate(-34.000000, -19.000000) "/>            <path d="M156,31 C167.642007,23.1142473 177.882007,17.5142473 186.72,14.2 C195.557993,10.8857527 206.651326,8.48575274 220,7" id="Path" transform="translate(188.000000, 19.000000) scale(-1, 1) rotate(12.000000) translate(-188.000000, -19.000000) "/>        </g>    </g>    </g><g id="notion-avatar-glasses">      <g id="Glasses/ 12"><g id="Group"><path id="Path" fill-rule="evenodd" clip-rule="evenodd" d="M805.209 500.217C805.813 491.284 798.652 484 789.699 484H455C446.163 484 439 491.163 439 500V575.76C439 580.706 441.26 585.352 445.249 588.275C465.881 603.396 532.959 650 575.94 650C627.244 650 619.761 588.343 666.321 588.343C712.881 588.343 690.97 650 747.116 640.514C791.7 632.982 802.608 538.717 805.209 500.217Z" fill="white" stroke="black" stroke-width="12" stroke-linecap="round" stroke-linejoin="round"/><g id="Group_2"><path id="Mask" fill-rule="evenodd" clip-rule="evenodd" d="M783.642 509.995C783.893 505.509 780.3 501.847 775.807 501.847L465 501.847C460.582 501.847 457 505.428 457 509.847V561.349C457 563.759 458.047 566.008 459.946 567.493C474.566 578.927 540.245 628.47 580.546 628.47C611.607 628.47 603.397 573.489 662.087 568.491C720.777 563.492 704.644 623.472 742.954 620.14C775.033 617.35 782.169 536.288 783.642 509.995Z" fill="black"/><mask id="mask0_0_1157" style="mask-type:alpha" maskUnits="userSpaceOnUse" x="457" y="501" width="327" height="128"><path id="Mask_2" fill-rule="evenodd" clip-rule="evenodd" d="M783.642 509.995C783.893 505.509 780.3 501.847 775.807 501.847L465 501.847C460.582 501.847 457 505.428 457 509.847V561.349C457 563.759 458.047 566.008 459.946 567.493C474.566 578.927 540.245 628.47 580.546 628.47C611.607 628.47 603.397 573.489 662.087 568.491C720.777 563.492 704.644 623.472 742.954 620.14C775.033 617.35 782.169 536.288 783.642 509.995Z" fill="white"/></mask><g mask="url(#mask0_0_1157)"><path id="Path_2" d="M671.808 492.742L781.264 580.828" stroke="white" stroke-width="16" stroke-linecap="round" stroke-linejoin="round"/><path id="Path_3" d="M696.436 478.979L805.892 567.065" stroke="white" stroke-width="8" stroke-linecap="round" stroke-linejoin="round"/></g></g><path id="Path_4" fill-rule="evenodd" clip-rule="evenodd" d="M439 492.036L284 523V566.875L439 552V492.036Z" fill="black" stroke="black" stroke-width="12" stroke-linecap="round" stroke-linejoin="round"/></g></g>    </g><g id="notion-avatar-hair">      <!--?xml version="1.0" encoding="UTF-8"?-->    <title>Hairstyle/ 0</title>    <g id="Hairstyle/-0" stroke="none" stroke-width="1" fill="none" fill-rule="evenodd"/>    </g><g id="notion-avatar-accessories">      <!--?xml version="1.0" encoding="UTF-8"?-->    <title>Accessories/ 0</title>    <g id="Accessories/-0" stroke="none" stroke-width="1" fill="none" fill-rule="evenodd"/>    </g><g id="notion-avatar-details">      <!--?xml version="1.0" encoding="UTF-8"?-->    <title>Details/ 0</title>    <g id="Details/-0" stroke="none" stroke-width="1" fill="none" fill-rule="evenodd"/>    </g><g id="notion-avatar-beard">      <!--?xml version="1.0" encoding="UTF-8"?-->    <title>Beard/ 0</title>    <g id="Beard/-0" stroke="none" stroke-width="1" fill="none" fill-rule="evenodd"/>    </g>      </g>      </svg>