<?xml version="1.0" standalone="no"?><!DOCTYPE svg PUBLIC "-//W3C//DTD SVG 1.1//EN" "http://www.w3.org/Graphics/SVG/1.1/DTD/svg11.dtd"><svg t="1622973074245" class="icon" viewBox="0 0 1024 1024" version="1.1" xmlns="http://www.w3.org/2000/svg" p-id="7378" xmlns:xlink="http://www.w3.org/1999/xlink" width="200" height="200"><defs><style type="text/css"></style></defs><path d="M740 414.4c-0.16-0.48-0.16-0.96-0.32-1.44-0.96-3.52-2.56-6.88-5.12-9.76-0.32-0.48-0.8-0.8-1.28-1.12-0.16-0.16-0.32-0.48-0.48-0.64l-38.4-35.2c-9.76-8.96-24.96-8.32-33.92 1.44-7.04 7.68-8.16 18.72-3.52 27.36h-64.64c-35.52 0-68 15.84-86.88 40.48-18.88-16.64-45.12-27.04-73.92-27.04h-124.16c-13.28 0-24 10.72-24 24s10.72 24 24 24h124.16c30.56 0 56.48 20 56.48 43.68 0 7.84 3.84 14.88 9.76 19.2-5.92 4.32-9.76 11.36-9.76 19.2s1.28 15.52 3.52 22.72c-4 1.76-7.68 4.48-10.4 8.16-10.08 14.24-29.12 23.2-49.6 23.2h-124.16c-13.28 0-24 10.72-24 24s10.72 24 24 24h124.16c34.56 0 66.24-14.88 85.76-39.68 19.04 16.96 45.6 27.68 75.04 27.68h64.64c-4.64 8.64-3.52 19.68 3.52 27.36 4.8 5.12 11.2 7.84 17.76 7.84 5.76 0 11.68-2.08 16.16-6.24l38.4-35.2c0.32-0.16 0.32-0.48 0.64-0.8 0.32-0.32 0.8-0.64 1.12-0.96 0.96-1.12 1.92-2.4 2.72-3.68 0-0.16 0.16-0.16 0.16-0.16 1.12-1.92 1.76-3.84 2.24-5.92 0.16-0.48 0.16-0.96 0.32-1.44 0.48-2.08 0.64-4.16 0.48-6.24v-0.48c-0.16-1.92-0.64-4-1.28-5.76-0.16-0.32-0.16-0.64-0.16-0.8-0.16-0.16-0.16-0.32-0.32-0.64-0.8-1.92-1.76-3.68-3.2-5.44-0.32-0.32-0.64-0.64-0.8-0.96-0.64-0.8-1.28-1.6-2.08-2.4l-38.4-34.08a24.048 24.048 0 0 0-37.76 28.16h-64c-30.56 0-56.48-19.2-56.48-42.08 0-7.84-3.84-14.88-9.76-19.2 5.92-4.32 9.76-11.36 9.76-19.2 0-6.08-0.64-12.16-2.08-17.92 1.6-2.08 2.72-4.32 3.68-6.88 6.24-18.72 29.28-32.32 54.88-32.32h64c-3.84 8.48-2.72 18.72 3.84 26.08 4.8 5.28 11.36 8 17.92 8 5.6 0 11.36-2.08 16-6.08l38.4-34.08c0.8-0.8 1.6-1.6 2.24-2.4 0.16-0.32 0.48-0.48 0.64-0.8 1.28-1.76 2.4-3.52 3.2-5.6 0-0.16 0.16-0.32 0.32-0.48 0.16-0.32 0.16-0.48 0.16-0.8 0.64-1.92 1.12-4 1.28-6.08v-0.32c0.16-2.08 0-4.16-0.48-6.24z" fill="#666666" p-id="7379"></path><path d="M512 65.12C265.6 65.12 65.12 265.6 65.12 512S265.6 958.88 512 958.88 958.88 758.4 958.88 512 758.4 65.12 512 65.12z m0 845.76C292.16 910.88 113.12 732 113.12 512 113.12 292.16 292.16 113.12 512 113.12c220 0 398.88 178.88 398.88 398.88S732 910.88 512 910.88z" fill="#666666" p-id="7380"></path></svg>