<svg id="visual" viewBox="0 0 900 600" width="900" height="600" xmlns="http://www.w3.org/2000/svg" xmlns:xlink="http://www.w3.org/1999/xlink" version="1.1"><defs><linearGradient id="grad1_0" x1="33.3%" y1="0%" x2="100%" y2="100%"><stop offset="20%" stop-color="#fbae3c" stop-opacity="1"></stop><stop offset="80%" stop-color="#fbae3c" stop-opacity="1"></stop></linearGradient></defs><defs><linearGradient id="grad1_1" x1="33.3%" y1="0%" x2="100%" y2="100%"><stop offset="20%" stop-color="#fbae3c" stop-opacity="1"></stop><stop offset="80%" stop-color="#c07c00" stop-opacity="1"></stop></linearGradient></defs><defs><linearGradient id="grad1_2" x1="33.3%" y1="0%" x2="100%" y2="100%"><stop offset="20%" stop-color="#874d00" stop-opacity="1"></stop><stop offset="80%" stop-color="#c07c00" stop-opacity="1"></stop></linearGradient></defs><defs><linearGradient id="grad1_3" x1="33.3%" y1="0%" x2="100%" y2="100%"><stop offset="20%" stop-color="#874d00" stop-opacity="1"></stop><stop offset="80%" stop-color="#552100" stop-opacity="1"></stop></linearGradient></defs><defs><linearGradient id="grad1_4" x1="33.3%" y1="0%" x2="100%" y2="100%"><stop offset="20%" stop-color="#000000" stop-opacity="1"></stop><stop offset="80%" stop-color="#552100" stop-opacity="1"></stop></linearGradient></defs><defs><linearGradient id="grad2_0" x1="0%" y1="0%" x2="66.7%" y2="100%"><stop offset="20%" stop-color="#fbae3c" stop-opacity="1"></stop><stop offset="80%" stop-color="#fbae3c" stop-opacity="1"></stop></linearGradient></defs><defs><linearGradient id="grad2_1" x1="0%" y1="0%" x2="66.7%" y2="100%"><stop offset="20%" stop-color="#c07c00" stop-opacity="1"></stop><stop offset="80%" stop-color="#fbae3c" stop-opacity="1"></stop></linearGradient></defs><defs><linearGradient id="grad2_2" x1="0%" y1="0%" x2="66.7%" y2="100%"><stop offset="20%" stop-color="#c07c00" stop-opacity="1"></stop><stop offset="80%" stop-color="#874d00" stop-opacity="1"></stop></linearGradient></defs><defs><linearGradient id="grad2_3" x1="0%" y1="0%" x2="66.7%" y2="100%"><stop offset="20%" stop-color="#552100" stop-opacity="1"></stop><stop offset="80%" stop-color="#874d00" stop-opacity="1"></stop></linearGradient></defs><defs><linearGradient id="grad2_4" x1="0%" y1="0%" x2="66.7%" y2="100%"><stop offset="20%" stop-color="#552100" stop-opacity="1"></stop><stop offset="80%" stop-color="#000000" stop-opacity="1"></stop></linearGradient></defs><g transform="translate(900, 0)"><path d="M0 486.7C-50.7 482.1 -101.3 477.4 -150.4 462.9C-199.5 448.5 -247 424.3 -280.4 385.9C-313.7 347.5 -332.8 295.1 -342.2 248.6C-351.6 202.2 -351.3 161.9 -373.8 121.4C-396.2 81 -441.5 40.5 -486.7 0L0 0Z" fill="#420900"></path><path d="M0 389.4C-40.5 385.7 -81.1 381.9 -120.3 370.3C-159.6 358.8 -197.6 339.4 -224.3 308.7C-251 278 -266.3 236 -273.8 198.9C-281.3 161.8 -281 129.5 -299 97.2C-317 64.8 -353.2 32.4 -389.4 0L0 0Z" fill="#6c3600"></path><path d="M0 292C-30.4 289.2 -60.8 286.4 -90.2 277.8C-119.7 269.1 -148.2 254.6 -168.2 231.5C-188.2 208.5 -199.7 177 -205.3 149.2C-211 121.3 -210.8 97.1 -224.3 72.9C-237.7 48.6 -264.9 24.3 -292 0L0 0Z" fill="#a36400"></path><path d="M0 194.7C-20.3 192.8 -40.5 191 -60.2 185.2C-79.8 179.4 -98.8 169.7 -112.1 154.4C-125.5 139 -133.1 118 -136.9 99.5C-140.6 80.9 -140.5 64.7 -149.5 48.6C-158.5 32.4 -176.6 16.2 -194.7 0L0 0Z" fill="#dd941f"></path><path d="M0 97.3C-10.1 96.4 -20.3 95.5 -30.1 92.6C-39.9 89.7 -49.4 84.9 -56.1 77.2C-62.7 69.5 -66.6 59 -68.4 49.7C-70.3 40.4 -70.3 32.4 -74.8 24.3C-79.2 16.2 -88.3 8.1 -97.3 0L0 0Z" fill="#fbae3c"></path></g><g transform="translate(0, 600)"><path d="M0 -486.7C34.1 -432 68.3 -377.2 120.5 -370.9C172.8 -364.6 243.1 -406.7 286.1 -393.8C329.1 -380.9 344.6 -313.1 360 -261.6C375.4 -210 390.7 -174.7 411.8 -133.8C432.9 -92.9 459.8 -46.5 486.7 0L0 0Z" fill="#420900"></path><path d="M0 -389.4C27.3 -345.6 54.6 -301.8 96.4 -296.7C138.2 -291.7 194.5 -325.3 228.9 -315C263.2 -304.7 275.7 -250.5 288 -209.3C300.3 -168 312.6 -139.8 329.4 -107C346.3 -74.3 367.9 -37.2 389.4 0L0 0Z" fill="#6c3600"></path><path d="M0 -292C20.5 -259.2 41 -226.3 72.3 -222.5C103.7 -218.7 145.9 -244 171.7 -236.3C197.4 -228.6 206.8 -187.9 216 -156.9C225.3 -126 234.4 -104.8 247.1 -80.3C259.7 -55.8 275.9 -27.9 292 0L0 0Z" fill="#a36400"></path><path d="M0 -194.7C13.7 -172.8 27.3 -150.9 48.2 -148.4C69.1 -145.8 97.3 -162.7 114.4 -157.5C131.6 -152.4 137.8 -125.2 144 -104.6C150.2 -84 156.3 -69.9 164.7 -53.5C173.2 -37.2 183.9 -18.6 194.7 0L0 0Z" fill="#dd941f"></path><path d="M0 -97.3C6.8 -86.4 13.7 -75.4 24.1 -74.2C34.6 -72.9 48.6 -81.3 57.2 -78.8C65.8 -76.2 68.9 -62.6 72 -52.3C75.1 -42 78.1 -34.9 82.4 -26.8C86.6 -18.6 92 -9.3 97.3 0L0 0Z" fill="#fbae3c"></path></g></svg>