<svg id="visual" viewBox="0 0 900 600" width="900" height="600" xmlns="http://www.w3.org/2000/svg" xmlns:xlink="http://www.w3.org/1999/xlink" version="1.1"><defs><linearGradient id="grad1_0" x1="33.3%" y1="0%" x2="100%" y2="100%"><stop offset="20%" stop-color="#4facf7" stop-opacity="1"></stop><stop offset="80%" stop-color="#4facf7" stop-opacity="1"></stop></linearGradient></defs><defs><linearGradient id="grad1_1" x1="33.3%" y1="0%" x2="100%" y2="100%"><stop offset="20%" stop-color="#4facf7" stop-opacity="1"></stop><stop offset="80%" stop-color="#245983" stop-opacity="1"></stop></linearGradient></defs><defs><linearGradient id="grad1_2" x1="33.3%" y1="0%" x2="100%" y2="100%"><stop offset="20%" stop-color="#001220" stop-opacity="1"></stop><stop offset="80%" stop-color="#245983" stop-opacity="1"></stop></linearGradient></defs><defs><linearGradient id="grad2_0" x1="0%" y1="0%" x2="66.7%" y2="100%"><stop offset="20%" stop-color="#4facf7" stop-opacity="1"></stop><stop offset="80%" stop-color="#4facf7" stop-opacity="1"></stop></linearGradient></defs><defs><linearGradient id="grad2_1" x1="0%" y1="0%" x2="66.7%" y2="100%"><stop offset="20%" stop-color="#245983" stop-opacity="1"></stop><stop offset="80%" stop-color="#4facf7" stop-opacity="1"></stop></linearGradient></defs><defs><linearGradient id="grad2_2" x1="0%" y1="0%" x2="66.7%" y2="100%"><stop offset="20%" stop-color="#245983" stop-opacity="1"></stop><stop offset="80%" stop-color="#001220" stop-opacity="1"></stop></linearGradient></defs><g transform="translate(900, 0)"><path d="M0 513.8C-50.6 520.2 -101.2 526.6 -133 496.3C-164.7 465.9 -177.6 398.8 -218 377.6C-258.4 356.3 -326.4 381 -361.3 361.3C-396.3 341.7 -398.2 277.8 -395.8 228.5C-393.4 179.2 -386.7 144.4 -405.7 108.7C-424.6 73 -469.2 36.5 -513.8 0L0 0Z" fill="#11344f"></path><path d="M0 342.5C-33.7 346.8 -67.5 351.1 -88.7 330.9C-109.8 310.6 -118.4 265.9 -145.3 251.7C-172.3 237.6 -217.6 254 -240.9 240.9C-264.2 227.8 -265.4 185.2 -263.8 152.3C-262.3 119.4 -257.8 96.2 -270.5 72.5C-283.1 48.7 -312.8 24.3 -342.5 0L0 0Z" fill="#3982bb"></path><path d="M0 171.3C-16.9 173.4 -33.7 175.5 -44.3 165.4C-54.9 155.3 -59.2 132.9 -72.7 125.9C-86.1 118.8 -108.8 127 -120.4 120.4C-132.1 113.9 -132.7 92.6 -131.9 76.2C-131.1 59.7 -128.9 48.1 -135.2 36.2C-141.5 24.3 -156.4 12.2 -171.3 0L0 0Z" fill="#4facf7"></path></g><g transform="translate(0, 600)"><path d="M0 -513.8C42.9 -490.2 85.9 -466.6 117.8 -439.5C149.7 -412.4 170.5 -381.7 217 -375.9C263.5 -370 335.5 -389 363.3 -363.3C391.1 -337.6 374.7 -267.4 383.6 -221.5C392.6 -175.6 427.1 -154.2 453 -121.4C479 -88.5 496.4 -44.3 513.8 0L0 0Z" fill="#11344f"></path><path d="M0 -342.5C28.6 -326.8 57.2 -311.1 78.5 -293C99.8 -274.9 113.7 -254.5 144.7 -250.6C175.6 -246.7 223.7 -259.3 242.2 -242.2C260.7 -225.1 249.8 -178.2 255.8 -147.7C261.8 -117.1 284.7 -102.8 302 -80.9C319.3 -59 330.9 -29.5 342.5 0L0 0Z" fill="#3982bb"></path><path d="M0 -171.3C14.3 -163.4 28.6 -155.5 39.3 -146.5C49.9 -137.5 56.8 -127.2 72.3 -125.3C87.8 -123.3 111.8 -129.7 121.1 -121.1C130.4 -112.5 124.9 -89.1 127.9 -73.8C130.9 -58.5 142.4 -51.4 151 -40.5C159.7 -29.5 165.5 -14.8 171.3 0L0 0Z" fill="#4facf7"></path></g></svg>