<svg id="visual" viewBox="0 0 900 600" width="900" height="600" xmlns="http://www.w3.org/2000/svg" xmlns:xlink="http://www.w3.org/1999/xlink" version="1.1"><defs><linearGradient id="grad1_0" x1="33.3%" y1="0%" x2="100%" y2="100%"><stop offset="20%" stop-color="#c62368" stop-opacity="1"></stop><stop offset="80%" stop-color="#c62368" stop-opacity="1"></stop></linearGradient></defs><defs><linearGradient id="grad1_1" x1="33.3%" y1="0%" x2="100%" y2="100%"><stop offset="20%" stop-color="#c62368" stop-opacity="1"></stop><stop offset="80%" stop-color="#8b2970" stop-opacity="1"></stop></linearGradient></defs><defs><linearGradient id="grad1_2" x1="33.3%" y1="0%" x2="100%" y2="100%"><stop offset="20%" stop-color="#4f2b64" stop-opacity="1"></stop><stop offset="80%" stop-color="#8b2970" stop-opacity="1"></stop></linearGradient></defs><defs><linearGradient id="grad1_3" x1="33.3%" y1="0%" x2="100%" y2="100%"><stop offset="20%" stop-color="#4f2b64" stop-opacity="1"></stop><stop offset="80%" stop-color="#1c2247" stop-opacity="1"></stop></linearGradient></defs><defs><linearGradient id="grad1_4" x1="33.3%" y1="0%" x2="100%" y2="100%"><stop offset="20%" stop-color="#001122" stop-opacity="1"></stop><stop offset="80%" stop-color="#1c2247" stop-opacity="1"></stop></linearGradient></defs><defs><linearGradient id="grad2_0" x1="0%" y1="0%" x2="66.7%" y2="100%"><stop offset="20%" stop-color="#c62368" stop-opacity="1"></stop><stop offset="80%" stop-color="#c62368" stop-opacity="1"></stop></linearGradient></defs><defs><linearGradient id="grad2_1" x1="0%" y1="0%" x2="66.7%" y2="100%"><stop offset="20%" stop-color="#8b2970" stop-opacity="1"></stop><stop offset="80%" stop-color="#c62368" stop-opacity="1"></stop></linearGradient></defs><defs><linearGradient id="grad2_2" x1="0%" y1="0%" x2="66.7%" y2="100%"><stop offset="20%" stop-color="#8b2970" stop-opacity="1"></stop><stop offset="80%" stop-color="#4f2b64" stop-opacity="1"></stop></linearGradient></defs><defs><linearGradient id="grad2_3" x1="0%" y1="0%" x2="66.7%" y2="100%"><stop offset="20%" stop-color="#1c2247" stop-opacity="1"></stop><stop offset="80%" stop-color="#4f2b64" stop-opacity="1"></stop></linearGradient></defs><defs><linearGradient id="grad2_4" x1="0%" y1="0%" x2="66.7%" y2="100%"><stop offset="20%" stop-color="#1c2247" stop-opacity="1"></stop><stop offset="80%" stop-color="#001122" stop-opacity="1"></stop></linearGradient></defs><g transform="translate(900, 0)"><path d="M0 486.7C-53.8 454.1 -107.5 421.5 -166.1 401C-224.7 380.5 -288.1 372.1 -338.7 338.7C-389.3 305.3 -427.2 246.9 -449.7 186.3C-472.2 125.6 -479.5 62.8 -486.7 0L0 0Z" fill="#091b35"></path><path d="M0 389.4C-43 363.3 -86 337.2 -132.9 320.8C-179.7 304.4 -230.5 297.7 -271 271C-311.5 244.2 -341.7 197.5 -359.8 149C-377.8 100.5 -383.6 50.3 -389.4 0L0 0Z" fill="#342757"></path><path d="M0 292C-32.3 272.5 -64.5 252.9 -99.7 240.6C-134.8 228.3 -172.8 223.3 -203.2 203.2C-233.6 183.2 -256.3 148.1 -269.8 111.8C-283.3 75.4 -287.7 37.7 -292 0L0 0Z" fill="#6d2b6c"></path><path d="M0 194.7C-21.5 181.6 -43 168.6 -66.4 160.4C-89.9 152.2 -115.2 148.8 -135.5 135.5C-155.7 122.1 -170.9 98.8 -179.9 74.5C-188.9 50.3 -191.8 25.1 -194.7 0L0 0Z" fill="#aa256f"></path><path d="M0 97.3C-10.8 90.8 -21.5 84.3 -33.2 80.2C-44.9 76.1 -57.6 74.4 -67.7 67.7C-77.9 61.1 -85.4 49.4 -89.9 37.3C-94.4 25.1 -95.9 12.6 -97.3 0L0 0Z" fill="#c62368"></path></g><g transform="translate(0, 600)"><path d="M0 -486.7C49.8 -450.4 99.6 -414 164.6 -397.3C229.5 -380.5 309.5 -383.4 344.2 -344.2C378.8 -304.9 368.1 -223.6 384.3 -159.2C400.5 -94.8 443.6 -47.4 486.7 0L0 0Z" fill="#091b35"></path><path d="M0 -389.4C39.9 -360.3 79.7 -331.2 131.6 -317.8C183.6 -304.4 247.6 -306.7 275.3 -275.3C303.1 -244 294.5 -178.9 307.5 -127.4C320.4 -75.8 354.9 -37.9 389.4 0L0 0Z" fill="#342757"></path><path d="M0 -292C29.9 -270.2 59.8 -248.4 98.7 -238.4C137.7 -228.3 185.7 -230.1 206.5 -206.5C227.3 -183 220.9 -134.1 230.6 -95.5C240.3 -56.9 266.2 -28.4 292 0L0 0Z" fill="#6d2b6c"></path><path d="M0 -194.7C19.9 -180.2 39.9 -165.6 65.8 -158.9C91.8 -152.2 123.8 -153.4 137.7 -137.7C151.5 -122 147.3 -89.4 153.7 -63.7C160.2 -37.9 177.5 -19 194.7 0L0 0Z" fill="#aa256f"></path><path d="M0 -97.3C10 -90.1 19.9 -82.8 32.9 -79.5C45.9 -76.1 61.9 -76.7 68.8 -68.8C75.8 -61 73.6 -44.7 76.9 -31.8C80.1 -19 88.7 -9.5 97.3 0L0 0Z" fill="#c62368"></path></g></svg>