<svg id="visual" viewBox="0 0 900 600" width="900" height="600" xmlns="http://www.w3.org/2000/svg" xmlns:xlink="http://www.w3.org/1999/xlink" version="1.1"><defs><linearGradient id="grad1_0" x1="33.3%" y1="0%" x2="100%" y2="100%"><stop offset="20%" stop-color="#c62368" stop-opacity="1"></stop><stop offset="80%" stop-color="#c62368" stop-opacity="1"></stop></linearGradient></defs><defs><linearGradient id="grad1_1" x1="33.3%" y1="0%" x2="100%" y2="100%"><stop offset="20%" stop-color="#c62368" stop-opacity="1"></stop><stop offset="80%" stop-color="#4b2d66" stop-opacity="1"></stop></linearGradient></defs><defs><linearGradient id="grad1_2" x1="33.3%" y1="0%" x2="100%" y2="100%"><stop offset="20%" stop-color="#001220" stop-opacity="1"></stop><stop offset="80%" stop-color="#4b2d66" stop-opacity="1"></stop></linearGradient></defs><defs><linearGradient id="grad2_0" x1="0%" y1="0%" x2="66.7%" y2="100%"><stop offset="20%" stop-color="#c62368" stop-opacity="1"></stop><stop offset="80%" stop-color="#c62368" stop-opacity="1"></stop></linearGradient></defs><defs><linearGradient id="grad2_1" x1="0%" y1="0%" x2="66.7%" y2="100%"><stop offset="20%" stop-color="#4b2d66" stop-opacity="1"></stop><stop offset="80%" stop-color="#c62368" stop-opacity="1"></stop></linearGradient></defs><defs><linearGradient id="grad2_2" x1="0%" y1="0%" x2="66.7%" y2="100%"><stop offset="20%" stop-color="#4b2d66" stop-opacity="1"></stop><stop offset="80%" stop-color="#001220" stop-opacity="1"></stop></linearGradient></defs><g transform="translate(900, 0)"><path d="M0 513.8C-35.1 471.2 -70.1 428.7 -110.8 413.4C-151.4 398.2 -197.6 410.2 -227.5 394C-257.4 377.9 -271 333.6 -310.4 310.4C-349.8 287.2 -415 285.1 -445 256.9C-474.9 228.7 -469.6 174.5 -475.2 127.3C-480.8 80.2 -497.3 40.1 -513.8 0L0 0Z" fill="#172447"></path><path d="M0 342.5C-23.4 314.2 -46.8 285.8 -73.8 275.6C-100.9 265.4 -131.7 273.4 -151.7 262.7C-171.6 251.9 -180.7 222.4 -206.9 206.9C-233.2 191.5 -276.7 190 -296.6 171.3C-316.6 152.5 -313.1 116.3 -316.8 84.9C-320.6 53.5 -331.5 26.7 -342.5 0L0 0Z" fill="#8a2b72"></path><path d="M0 171.3C-11.7 157.1 -23.4 142.9 -36.9 137.8C-50.5 132.7 -65.9 136.7 -75.8 131.3C-85.8 126 -90.3 111.2 -103.5 103.5C-116.6 95.7 -138.3 95 -148.3 85.6C-158.3 76.2 -156.5 58.2 -158.4 42.4C-160.3 26.7 -165.8 13.4 -171.3 0L0 0Z" fill="#c62368"></path></g><g transform="translate(0, 600)"><path d="M0 -513.8C36.1 -472.9 72.3 -432.1 111.8 -417.3C151.3 -402.5 194.2 -413.7 237 -410.5C279.8 -407.3 322.4 -389.8 363.3 -363.3C404.2 -336.8 443.2 -301.4 442.5 -255.5C441.8 -209.6 401.4 -153.3 406.7 -109C411.9 -64.6 462.8 -32.3 513.8 0L0 0Z" fill="#172447"></path><path d="M0 -342.5C24.1 -315.3 48.2 -288.1 74.5 -278.2C100.9 -268.3 129.5 -275.8 158 -273.7C186.5 -271.6 215 -259.9 242.2 -242.2C269.4 -224.5 295.5 -200.9 295 -170.3C294.6 -139.7 267.6 -102.2 271.1 -72.6C274.6 -43.1 308.6 -21.5 342.5 0L0 0Z" fill="#8a2b72"></path><path d="M0 -171.3C12 -157.6 24.1 -144 37.3 -139.1C50.4 -134.2 64.7 -137.9 79 -136.8C93.3 -135.8 107.5 -129.9 121.1 -121.1C134.7 -112.3 147.7 -100.5 147.5 -85.2C147.3 -69.9 133.8 -51.1 135.6 -36.3C137.3 -21.5 154.3 -10.8 171.3 0L0 0Z" fill="#c62368"></path></g></svg>