<svg id="visual" viewBox="0 0 900 600" width="900" height="600" xmlns="http://www.w3.org/2000/svg" xmlns:xlink="http://www.w3.org/1999/xlink" version="1.1"><rect x="0" y="0" width="900" height="600"></rect><defs><linearGradient id="grad1_0" x1="33.3%" y1="0%" x2="100%" y2="100%"><stop offset="20%" stop-color="#fbae3c" stop-opacity="1"></stop><stop offset="80%" stop-color="#fbae3c" stop-opacity="1"></stop></linearGradient></defs><defs><linearGradient id="grad1_1" x1="33.3%" y1="0%" x2="100%" y2="100%"><stop offset="20%" stop-color="#fbae3c" stop-opacity="1"></stop><stop offset="80%" stop-color="#ff86c6" stop-opacity="1"></stop></linearGradient></defs><defs><linearGradient id="grad1_2" x1="33.3%" y1="0%" x2="100%" y2="100%"><stop offset="20%" stop-color="#4facf7" stop-opacity="1"></stop><stop offset="80%" stop-color="#ff86c6" stop-opacity="1"></stop></linearGradient></defs><defs><linearGradient id="grad2_0" x1="0%" y1="0%" x2="66.7%" y2="100%"><stop offset="20%" stop-color="#fbae3c" stop-opacity="1"></stop><stop offset="80%" stop-color="#fbae3c" stop-opacity="1"></stop></linearGradient></defs><defs><linearGradient id="grad2_1" x1="0%" y1="0%" x2="66.7%" y2="100%"><stop offset="20%" stop-color="#ff86c6" stop-opacity="1"></stop><stop offset="80%" stop-color="#fbae3c" stop-opacity="1"></stop></linearGradient></defs><defs><linearGradient id="grad2_2" x1="0%" y1="0%" x2="66.7%" y2="100%"><stop offset="20%" stop-color="#ff86c6" stop-opacity="1"></stop><stop offset="80%" stop-color="#4facf7" stop-opacity="1"></stop></linearGradient></defs><g transform="translate(900, 0)"><path d="M0 513.8C-68.6 509.1 -137.2 504.3 -196.6 474.7C-256.1 445 -306.4 390.5 -333.8 333.8C-361.1 277.1 -365.5 218.2 -391.7 162.3C-417.9 106.3 -465.8 53.1 -513.8 0L0 0Z" fill="#be9bf6"></path><path d="M0 342.5C-45.7 339.4 -91.4 336.2 -131.1 316.5C-170.7 296.7 -204.3 260.3 -222.5 222.5C-240.7 184.7 -243.7 145.5 -261.1 108.2C-278.6 70.9 -310.6 35.4 -342.5 0L0 0Z" fill="#ff8b7e"></path><path d="M0 171.3C-22.9 169.7 -45.7 168.1 -65.5 158.2C-85.4 148.3 -102.1 130.2 -111.3 111.3C-120.4 92.4 -121.8 72.7 -130.6 54.1C-139.3 35.4 -155.3 17.7 -171.3 0L0 0Z" fill="#fbae3c"></path></g><g transform="translate(0, 600)"><path d="M0 -513.8C66.8 -506.2 133.6 -498.6 196.6 -474.7C259.6 -450.8 318.9 -410.6 359.2 -359.2C399.5 -307.9 420.9 -245.4 443.5 -183.7C466.1 -122 489.9 -61 513.8 0L0 0Z" fill="#be9bf6"></path><path d="M0 -342.5C44.5 -337.5 89.1 -332.4 131.1 -316.5C173.1 -300.5 212.6 -273.7 239.5 -239.5C266.3 -205.2 280.6 -163.6 295.6 -122.5C310.7 -81.3 326.6 -40.7 342.5 0L0 0Z" fill="#ff8b7e"></path><path d="M0 -171.3C22.3 -168.7 44.5 -166.2 65.5 -158.2C86.5 -150.3 106.3 -136.9 119.7 -119.7C133.2 -102.6 140.3 -81.8 147.8 -61.2C155.4 -40.7 163.3 -20.3 171.3 0L0 0Z" fill="#fbae3c"></path></g></svg>