<svg id="visual" viewBox="0 0 900 600" width="900" height="600" xmlns="http://www.w3.org/2000/svg" xmlns:xlink="http://www.w3.org/1999/xlink" version="1.1"><defs><linearGradient id="grad1_0" x1="33.3%" y1="0%" x2="100%" y2="100%"><stop offset="20%" stop-color="#ffffff" stop-opacity="1"></stop><stop offset="80%" stop-color="#ffffff" stop-opacity="1"></stop></linearGradient></defs><defs><linearGradient id="grad1_1" x1="33.3%" y1="0%" x2="100%" y2="100%"><stop offset="20%" stop-color="#ffffff" stop-opacity="1"></stop><stop offset="80%" stop-color="#777e87" stop-opacity="1"></stop></linearGradient></defs><defs><linearGradient id="grad1_2" x1="33.3%" y1="0%" x2="100%" y2="100%"><stop offset="20%" stop-color="#001220" stop-opacity="1"></stop><stop offset="80%" stop-color="#777e87" stop-opacity="1"></stop></linearGradient></defs><defs><linearGradient id="grad2_0" x1="0%" y1="0%" x2="66.7%" y2="100%"><stop offset="20%" stop-color="#ffffff" stop-opacity="1"></stop><stop offset="80%" stop-color="#ffffff" stop-opacity="1"></stop></linearGradient></defs><defs><linearGradient id="grad2_1" x1="0%" y1="0%" x2="66.7%" y2="100%"><stop offset="20%" stop-color="#777e87" stop-opacity="1"></stop><stop offset="80%" stop-color="#ffffff" stop-opacity="1"></stop></linearGradient></defs><defs><linearGradient id="grad2_2" x1="0%" y1="0%" x2="66.7%" y2="100%"><stop offset="20%" stop-color="#777e87" stop-opacity="1"></stop><stop offset="80%" stop-color="#001220" stop-opacity="1"></stop></linearGradient></defs><g transform="translate(900, 0)"><path d="M0 513.8C-43 504.8 -86.1 495.8 -130.4 486.8C-174.8 477.9 -220.5 468.9 -256.9 445C-293.3 421 -320.4 381.9 -346.5 346.5C-372.6 311.1 -397.7 279.3 -424.4 245C-451.1 210.7 -479.4 173.8 -494.6 132.5C-509.7 91.3 -511.8 45.6 -513.8 0L0 0Z" fill="#3a4551"></path><path d="M0 342.5C-28.7 336.5 -57.4 330.5 -87 324.6C-116.5 318.6 -147 312.6 -171.3 296.6C-195.5 280.6 -213.6 254.6 -231 231C-248.4 207.4 -265.1 186.2 -282.9 163.3C-300.7 140.5 -319.6 115.9 -329.7 88.3C-339.8 60.8 -341.2 30.4 -342.5 0L0 0Z" fill="#b9bcc1"></path><path d="M0 171.3C-14.3 168.3 -28.7 165.3 -43.5 162.3C-58.3 159.3 -73.5 156.3 -85.6 148.3C-97.8 140.3 -106.8 127.3 -115.5 115.5C-124.2 103.7 -132.6 93.1 -141.5 81.7C-150.4 70.2 -159.8 57.9 -164.9 44.2C-169.9 30.4 -170.6 15.2 -171.3 0L0 0Z" fill="#ffffff"></path></g><g transform="translate(0, 600)"><path d="M0 -513.8C37.2 -483 74.4 -452.2 118.3 -441.4C162.1 -430.7 212.7 -440 241 -417.4C269.3 -394.9 275.5 -340.4 313.2 -313.2C351 -286.1 420.5 -286.1 445 -256.9C469.5 -227.7 449 -169.1 453 -121.4C457 -73.7 485.4 -36.8 513.8 0L0 0Z" fill="#3a4551"></path><path d="M0 -342.5C24.8 -322 49.6 -301.5 78.9 -294.3C108.1 -287.1 141.8 -293.3 160.7 -278.3C179.6 -263.2 183.6 -227 208.8 -208.8C234 -190.7 280.3 -190.8 296.6 -171.3C313 -151.8 299.4 -112.7 302 -80.9C304.7 -49.1 323.6 -24.6 342.5 0L0 0Z" fill="#b9bcc1"></path><path d="M0 -171.3C12.4 -161 24.8 -150.7 39.4 -147.1C54 -143.6 70.9 -146.7 80.3 -139.1C89.8 -131.6 91.8 -113.5 104.4 -104.4C117 -95.4 140.2 -95.4 148.3 -85.6C156.5 -75.9 149.7 -56.4 151 -40.5C152.3 -24.6 161.8 -12.3 171.3 0L0 0Z" fill="#ffffff"></path></g></svg>