<svg id="visual" viewBox="0 0 900 600" width="900" height="600" xmlns="http://www.w3.org/2000/svg" xmlns:xlink="http://www.w3.org/1999/xlink" version="1.1"><defs><linearGradient id="grad1_0" x1="33.3%" y1="0%" x2="100%" y2="100%"><stop offset="20%" stop-color="#f7caca" stop-opacity="1"></stop><stop offset="80%" stop-color="#f7caca" stop-opacity="1"></stop></linearGradient></defs><defs><linearGradient id="grad1_1" x1="33.3%" y1="0%" x2="100%" y2="100%"><stop offset="20%" stop-color="#f7caca" stop-opacity="1"></stop><stop offset="80%" stop-color="#776579" stop-opacity="1"></stop></linearGradient></defs><defs><linearGradient id="grad1_2" x1="33.3%" y1="0%" x2="100%" y2="100%"><stop offset="20%" stop-color="#001220" stop-opacity="1"></stop><stop offset="80%" stop-color="#776579" stop-opacity="1"></stop></linearGradient></defs><defs><linearGradient id="grad2_0" x1="0%" y1="0%" x2="66.7%" y2="100%"><stop offset="20%" stop-color="#f7caca" stop-opacity="1"></stop><stop offset="80%" stop-color="#f7caca" stop-opacity="1"></stop></linearGradient></defs><defs><linearGradient id="grad2_1" x1="0%" y1="0%" x2="66.7%" y2="100%"><stop offset="20%" stop-color="#776579" stop-opacity="1"></stop><stop offset="80%" stop-color="#f7caca" stop-opacity="1"></stop></linearGradient></defs><defs><linearGradient id="grad2_2" x1="0%" y1="0%" x2="66.7%" y2="100%"><stop offset="20%" stop-color="#776579" stop-opacity="1"></stop><stop offset="80%" stop-color="#001220" stop-opacity="1"></stop></linearGradient></defs><g transform="translate(900, 0)"><path d="M0 513.8C-39.7 486.2 -79.4 458.6 -118 440.5C-156.6 422.3 -194.1 413.7 -231.5 401C-268.9 388.2 -306.3 371.4 -349.3 349.3C-392.3 327.2 -440.9 299.7 -445 256.9C-449 214.1 -408.4 155.9 -412.5 110.5C-416.5 65.1 -465.1 32.6 -513.8 0L0 0Z" fill="#39394d"></path><path d="M0 342.5C-26.5 324.1 -53 305.7 -78.7 293.6C-104.4 281.6 -129.4 275.8 -154.3 267.3C-179.3 258.8 -204.2 247.6 -232.9 232.9C-261.5 218.1 -294 199.8 -296.6 171.3C-299.3 142.7 -272.3 103.9 -275 73.7C-277.7 43.4 -310.1 21.7 -342.5 0L0 0Z" fill="#b895a3"></path><path d="M0 171.3C-13.2 162.1 -26.5 152.9 -39.3 146.8C-52.2 140.8 -64.7 137.9 -77.2 133.7C-89.6 129.4 -102.1 123.8 -116.4 116.4C-130.8 109.1 -147 99.9 -148.3 85.6C-149.7 71.4 -136.1 52 -137.5 36.8C-138.8 21.7 -155 10.9 -171.3 0L0 0Z" fill="#f7caca"></path></g><g transform="translate(0, 600)"><path d="M0 -513.8C35.7 -476.5 71.5 -439.3 115.2 -429.8C158.9 -420.4 210.5 -438.7 245 -424.4C279.5 -410 297 -363 333 -333C369.1 -303.1 423.8 -290.3 445 -256.9C466.2 -223.5 453.9 -169.4 459.8 -123.2C465.7 -76.9 489.7 -38.5 513.8 0L0 0Z" fill="#39394d"></path><path d="M0 -342.5C23.8 -317.7 47.7 -292.9 76.8 -286.6C105.9 -280.3 140.3 -292.5 163.3 -282.9C186.4 -273.3 198 -242 222 -222C246.1 -202.1 282.5 -193.5 296.6 -171.3C310.8 -149 302.6 -113 306.5 -82.1C310.5 -51.3 326.5 -25.6 342.5 0L0 0Z" fill="#b895a3"></path><path d="M0 -171.3C11.9 -158.8 23.8 -146.4 38.4 -143.3C53 -140.1 70.2 -146.2 81.7 -141.5C93.2 -136.7 99 -121 111 -111C123 -101 141.3 -96.8 148.3 -85.6C155.4 -74.5 151.3 -56.5 153.3 -41.1C155.2 -25.6 163.2 -12.8 171.3 0L0 0Z" fill="#f7caca"></path></g></svg>