<svg id="visual" viewBox="0 0 900 600" width="900" height="600" xmlns="http://www.w3.org/2000/svg" xmlns:xlink="http://www.w3.org/1999/xlink" version="1.1"><defs><linearGradient id="grad1_0" x1="33.3%" y1="0%" x2="100%" y2="100%"><stop offset="20%" stop-color="#888277" stop-opacity="1"></stop><stop offset="80%" stop-color="#888277" stop-opacity="1"></stop></linearGradient></defs><defs><linearGradient id="grad1_1" x1="33.3%" y1="0%" x2="100%" y2="100%"><stop offset="20%" stop-color="#888277" stop-opacity="1"></stop><stop offset="80%" stop-color="#364a45" stop-opacity="1"></stop></linearGradient></defs><defs><linearGradient id="grad1_2" x1="33.3%" y1="0%" x2="100%" y2="100%"><stop offset="20%" stop-color="#001220" stop-opacity="1"></stop><stop offset="80%" stop-color="#364a45" stop-opacity="1"></stop></linearGradient></defs><defs><linearGradient id="grad2_0" x1="0%" y1="0%" x2="66.7%" y2="100%"><stop offset="20%" stop-color="#888277" stop-opacity="1"></stop><stop offset="80%" stop-color="#888277" stop-opacity="1"></stop></linearGradient></defs><defs><linearGradient id="grad2_1" x1="0%" y1="0%" x2="66.7%" y2="100%"><stop offset="20%" stop-color="#364a45" stop-opacity="1"></stop><stop offset="80%" stop-color="#888277" stop-opacity="1"></stop></linearGradient></defs><defs><linearGradient id="grad2_2" x1="0%" y1="0%" x2="66.7%" y2="100%"><stop offset="20%" stop-color="#364a45" stop-opacity="1"></stop><stop offset="80%" stop-color="#001220" stop-opacity="1"></stop></linearGradient></defs><g transform="translate(900, 0)"><path d="M0 513.8C-42.3 501.5 -84.7 489.2 -127.6 476.2C-170.5 463.2 -214 449.6 -243 420.9C-272 392.1 -286.4 348.2 -321.7 321.7C-357 295.3 -413.2 286.2 -445 256.9C-476.8 227.6 -484.2 177.9 -491.7 131.7C-499.1 85.5 -506.4 42.8 -513.8 0L0 0Z" fill="#152e34"></path><path d="M0 342.5C-28.2 334.3 -56.5 326.1 -85.1 317.5C-113.7 308.8 -142.7 299.8 -162 280.6C-181.3 261.4 -191 232.1 -214.5 214.5C-238 196.8 -275.4 190.8 -296.6 171.3C-317.8 151.7 -322.8 118.6 -327.8 87.8C-332.7 57 -337.6 28.5 -342.5 0L0 0Z" fill="#5f665a"></path><path d="M0 171.3C-14.1 167.2 -28.2 163.1 -42.5 158.7C-56.8 154.4 -71.3 149.9 -81 140.3C-90.7 130.7 -95.5 116.1 -107.2 107.2C-119 98.4 -137.7 95.4 -148.3 85.6C-158.9 75.9 -161.4 59.3 -163.9 43.9C-166.4 28.5 -168.8 14.3 -171.3 0L0 0Z" fill="#888277"></path></g><g transform="translate(0, 600)"><path d="M0 -513.8C43.4 -497.5 86.8 -481.1 123.7 -461.7C160.6 -442.3 191 -419.8 235.5 -407.9C280 -396 338.8 -394.8 363.3 -363.3C387.9 -331.8 378.2 -269.9 394 -227.5C409.8 -185.1 451 -162 475.2 -127.3C499.4 -92.7 506.6 -46.3 513.8 0L0 0Z" fill="#152e34"></path><path d="M0 -342.5C28.9 -331.6 57.9 -320.8 82.5 -307.8C107.1 -294.9 127.3 -279.8 157 -271.9C186.7 -264 225.8 -263.2 242.2 -242.2C258.6 -221.2 252.2 -180 262.7 -151.7C273.2 -123.4 300.7 -108 316.8 -84.9C333 -61.8 337.7 -30.9 342.5 0L0 0Z" fill="#5f665a"></path><path d="M0 -171.3C14.5 -165.8 28.9 -160.4 41.2 -153.9C53.5 -147.4 63.7 -139.9 78.5 -136C93.3 -132 112.9 -131.6 121.1 -121.1C129.3 -110.6 126.1 -90 131.3 -75.8C136.6 -61.7 150.3 -54 158.4 -42.4C166.5 -30.9 168.9 -15.4 171.3 0L0 0Z" fill="#888277"></path></g></svg>